<svg width="32" height="16" viewBox="0 0 32 16" fill="none" xmlns="http://www.w3.org/2000/svg">
<path d="M8.56747 0.000786757H3.01344C2.63396 0.000786757 2.31069 0.271373 2.25166 0.63871L0.00571544 14.5857C-0.0340395 14.8327 0.137828 15.0644 0.389609 15.1033C0.413703 15.1068 0.437798 15.1088 0.461892 15.1088H3.3122C3.57803 15.1088 3.80371 14.9188 3.84507 14.662L4.48236 10.7086C4.54099 10.3413 4.86424 10.0703 5.24412 10.0699H7.00137C10.6604 10.0699 12.7707 8.33627 13.3228 4.90045C13.5722 3.39728 13.3324 2.21621 12.614 1.38912C11.8258 0.480999 10.4263 0.000393678 8.56788 0.000393678L8.56747 0.000786757ZM9.20797 5.09473C8.90519 7.04626 7.38246 7.04626 5.90952 7.04626H5.07225L5.66095 3.4016C5.69589 3.18136 5.88944 3.01893 6.11713 3.01893H6.50102C7.50293 3.01893 8.44981 3.01893 8.93852 3.57898C9.23005 3.91289 9.3184 4.40922 9.20717 5.09473H9.20797ZM25.1665 5.03181H22.509C22.2813 5.03102 22.0874 5.19384 22.0528 5.41448L21.9352 6.14286L21.7484 5.87896C21.1726 5.06052 19.8896 4.78718 18.6082 4.78718C15.6695 4.78718 13.1606 6.96721 12.6715 10.0251C12.4181 11.5503 12.7779 13.009 13.6613 14.0261C14.4733 14.9613 15.6314 15.3511 17.0108 15.3511C19.3788 15.3511 20.6915 13.8601 20.6915 13.8601L20.5731 14.5837C20.5325 14.8311 20.7048 15.0636 20.9569 15.1029C20.9814 15.1068 21.0063 15.1088 21.0308 15.1084H23.4254C23.8053 15.1084 24.1281 14.8374 24.1871 14.4697L25.6251 5.55528C25.6641 5.30751 25.4906 5.07546 25.2376 5.03731C25.2139 5.03377 25.1902 5.03181 25.1665 5.0322V5.03181ZM21.4597 10.101C21.2047 11.5888 19.9972 12.5878 18.4592 12.5878C17.6886 12.5878 17.0698 12.3451 16.6735 11.8854C16.2803 11.4287 16.1326 10.779 16.2562 10.0554C16.4976 8.58011 17.7219 7.5485 19.2362 7.5485C19.9916 7.5485 20.6052 7.79431 21.0096 8.258C21.4163 8.72641 21.577 9.38007 21.4593 10.1006L21.4597 10.101ZM28.3016 0.383462L26.0223 14.5857C25.9825 14.8327 26.1544 15.0644 26.4062 15.1033C26.4303 15.1068 26.4544 15.1088 26.4785 15.1088H28.7698C29.1505 15.1088 29.4737 14.8382 29.5324 14.4701L31.7799 0.523868C31.8197 0.276486 31.6474 0.0444422 31.3948 0.0055061C31.3711 0.00196645 31.3474 0 31.3233 0H28.7573C28.5296 0.000786589 28.3365 0.163217 28.3012 0.383462H28.3016Z" fill="#E6F0ED"/>
</svg>
