<svg width="93" height="24" viewBox="0 0 93 24" fill="none" xmlns="http://www.w3.org/2000/svg">
<path d="M6.775 18.275C10.7 18.275 13.35 16.225 13.35 12.95C13.35 6.025 4.15 8.975 4.15 5.325C4.15 4.3 5.075 3.6 6.55 3.6C8.225 3.6 9.275 4.5 9.4 5.875H12.975C12.875 2.55 10.325 0.375001 6.55 0.375001C3 0.375001 0.5 2.425 0.5 5.325C0.5 12.2 9.575 9.575 9.575 13C9.575 14.325 8.45 15.025 6.775 15.025C4.925 15.025 3.75 13.9 3.6 12.125H0C0.15 15.85 2.8 18.275 6.775 18.275Z" fill="#E6F0ED"/>
<path d="M14.2002 23.175H17.6752V16.95C18.3502 17.8 19.5752 18.275 21.0002 18.275C24.6252 18.275 27.0752 15.7 27.0752 11.775C27.0752 7.85 24.8252 5.275 21.3002 5.275C19.6752 5.275 18.4252 5.875 17.6752 6.85V5.475H14.2002V23.175ZM20.5752 15.275C18.7002 15.275 17.4752 13.875 17.4752 11.775C17.4752 9.65 18.7002 8.25 20.5752 8.25C22.4002 8.25 23.6502 9.65 23.6502 11.775C23.6502 13.875 22.4002 15.275 20.5752 15.275Z" fill="#E6F0ED"/>
<path d="M27.916 18.075H31.391V11.175C31.391 9.55 32.466 8.375 33.991 8.375C35.441 8.375 36.441 9.475 36.441 11V18.075H39.916V10.225C39.916 7.325 38.066 5.275 35.241 5.275C33.491 5.275 32.116 6 31.391 7.225V0H27.916V18.075Z" fill="#E6F0ED"/>
<path d="M49.6371 13.8C49.3621 14.875 48.4371 15.425 47.0371 15.425C45.2871 15.425 44.1621 14.325 43.9121 12.55H52.9621C52.9871 12.275 53.0121 11.9 53.0121 11.425C53.0121 8.55 51.2371 5.275 46.7871 5.275C42.5121 5.275 40.5621 8.55 40.5621 11.75C40.5621 14.925 42.7621 18.275 47.0371 18.275C50.1371 18.275 52.5371 16.525 53.0371 13.8H49.6371ZM46.7871 7.825C48.4621 7.825 49.4371 8.95 49.5371 10.35H43.9621C44.2621 8.6 45.2121 7.825 46.7871 7.825Z" fill="#E6F0ED"/>
<path d="M62.1258 8.375V5.475H60.3328C58.8078 5.475 57.8578 6 57.1828 7.575V5.475H53.6828V18.075H57.1828V11.95C57.1828 9.8 57.9578 8.375 59.6828 8.375H62.1258Z" fill="#E6F0ED"/>
<path d="M74.1258 5.475H70.6258V12.375C70.6258 13.975 69.5508 15.175 68.0258 15.175C66.6008 15.175 65.6008 14.075 65.6008 12.55V5.475H62.1258V13.325C62.1258 16.2 63.9758 18.275 66.8008 18.275C68.5258 18.275 69.9258 17.525 70.6258 16.325V18.075H74.1258V5.475Z" fill="#E6F0ED"/>
<path d="M75.626 18.075H79.101V0H75.626V18.075Z" fill="#E6F0ED"/>
<path d="M89.0219 13.8C88.7469 14.875 87.8219 15.425 86.4219 15.425C84.6719 15.425 83.5469 14.325 83.2969 12.55H92.3469C92.3719 12.275 92.3969 11.9 92.3969 11.425C92.3969 8.55 90.6219 5.275 86.1719 5.275C81.8969 5.275 79.9469 8.55 79.9469 11.75C79.9469 14.925 82.1469 18.275 86.4219 18.275C89.5219 18.275 91.9219 16.525 92.4219 13.8H89.0219ZM86.1719 7.825C87.8469 7.825 88.8219 8.95 88.9219 10.35H83.3469C83.6469 8.6 84.5969 7.825 86.1719 7.825Z" fill="#E6F0ED"/>
</svg>
