<svg width="28" height="28" viewBox="0 0 28 28" fill="none" xmlns="http://www.w3.org/2000/svg">
<path d="M13.835 1.65723C20.6474 1.65723 26.1699 7.17977 26.1699 13.9922C26.1699 20.8046 20.6474 26.3271 13.835 26.3271C7.02254 26.3271 1.5 20.8046 1.5 13.9922C1.50002 7.17979 7.02256 1.65725 13.835 1.65723Z" stroke="#E6F0ED" stroke-width="3"/>
<path d="M22.5567 5.26983C23.626 6.33914 24.0436 8.23735 23.3874 10.7893C22.7409 13.3033 21.1 16.1675 18.5551 18.7124C16.0101 21.2574 13.146 22.8982 10.6319 23.5448C8.07997 24.201 6.18175 23.7834 5.11244 22.7141C4.04335 21.6447 3.62627 19.747 4.28241 17.1953C4.92898 14.6812 6.56981 11.8171 9.11477 9.27216C11.6598 6.72719 14.5239 5.08636 17.038 4.4398C19.5896 3.78366 21.4873 4.20074 22.5567 5.26983Z" stroke="#E6F0ED" stroke-width="3"/>
<path d="M5.11261 5.27044C6.18192 4.20113 8.08014 3.78352 10.6321 4.43973C13.1461 5.08629 16.0103 6.72713 18.5552 9.27208C21.1002 11.817 22.741 14.6812 23.3876 17.1953C24.0438 19.7472 23.6262 21.6454 22.5569 22.7147C21.4875 23.7838 19.5898 24.2009 17.0381 23.5447C14.524 22.8981 11.6599 21.2573 9.11495 18.7124C6.56998 16.1674 4.92914 13.3033 4.28259 10.7892C3.62644 8.23752 4.04352 6.3398 5.11261 5.27044Z" stroke="#E6F0ED" stroke-width="3"/>
</svg>
