<svg width="40" height="19" viewBox="0 0 40 19" fill="none" xmlns="http://www.w3.org/2000/svg">
<path d="M8.56734 0.000393078H3.01411C2.63423 0.000393078 2.31097 0.270586 2.25154 0.638316L0.00558863 14.5853C-0.0337647 14.8327 0.138907 15.0643 0.391491 15.1033C0.415184 15.1068 0.43928 15.1088 0.463775 15.1088H3.1149C3.49518 15.1088 3.81844 14.8378 3.87747 14.4701L4.48343 10.7082C4.54206 10.3409 4.86532 10.0699 5.2452 10.0695H7.00325C10.6615 10.0695 12.7725 8.33587 13.3239 4.90005C13.5724 3.39688 13.3343 2.21582 12.6159 1.38872C11.8264 0.480606 10.4266 0 8.56815 0L8.56734 0.000393078ZM9.20784 5.09434C8.90426 7.04587 7.38152 7.04587 5.90939 7.04587H5.07132L5.65922 3.40121C5.69495 3.18096 5.88851 3.01853 6.11619 3.01853H6.50009C7.5028 3.01853 8.44888 3.01853 8.93758 3.57858C9.22912 3.91249 9.31827 4.40883 9.20704 5.09434H9.20784ZM25.1672 5.03141H22.5081C22.2804 5.03141 22.0864 5.19384 22.0511 5.41409L21.9334 6.14247L21.7475 5.87857C21.1716 5.06012 19.8878 4.78679 18.6065 4.78679C15.6678 4.78679 13.1576 6.96681 12.6689 10.0247C12.4147 11.5499 12.7761 13.0086 13.6596 14.0257C14.4699 14.9609 15.6297 15.3507 17.009 15.3507C19.3771 15.3507 20.6898 13.8597 20.6898 13.8597L20.5713 14.5834C20.5308 14.8307 20.703 15.0632 20.9552 15.1025C20.9793 15.1064 21.0034 15.108 21.0275 15.108H23.4228C23.8031 15.108 24.1264 14.837 24.1854 14.4693L25.6226 5.55489C25.6631 5.30869 25.4917 5.07664 25.2403 5.03731C25.2162 5.03338 25.1917 5.03141 25.1672 5.03141ZM21.4604 10.1006C21.2038 11.5884 19.9979 12.5874 18.4599 12.5874C17.6877 12.5874 17.0705 12.3447 16.6741 11.885C16.281 11.4283 16.1316 10.7786 16.2569 10.055C16.4966 8.57971 17.7226 7.5481 19.2369 7.5481C19.9923 7.5481 20.6058 7.79391 21.0102 8.25761C21.4154 8.72602 21.576 9.37967 21.46 10.1002L21.4604 10.1006ZM39.3304 5.03141H36.658C36.4022 5.03181 36.1628 5.15609 36.0191 5.36296L32.3335 10.6803L30.771 5.57062C30.6727 5.25048 30.3719 5.03141 30.0306 5.03141H27.4043C27.1485 5.03063 26.9409 5.23317 26.9401 5.4837C26.9401 5.53404 26.9486 5.5836 26.965 5.63119L29.9085 14.0913L27.1413 17.9173C26.9931 18.1214 27.0421 18.4046 27.2505 18.5493C27.3288 18.604 27.4228 18.6331 27.5188 18.6331H30.188C30.441 18.6331 30.6779 18.5124 30.822 18.3086L39.7103 5.74288C39.856 5.53719 39.8038 5.2548 39.5938 5.11204C39.5163 5.05934 39.4244 5.03102 39.33 5.03102L39.3304 5.03141Z" fill="#53918C"/>
</svg>
