<svg width="73" height="23" viewBox="0 0 73 23" fill="none" xmlns="http://www.w3.org/2000/svg">
<path fill-rule="evenodd" clip-rule="evenodd" d="M18.1702 22.0845H11.8804L7.16379 4.8175C6.93992 4.02321 6.46459 3.32102 5.76538 2.99007C4.02043 2.15838 2.09762 1.49647 0 1.16265V0.497865H10.1324C11.5308 0.497865 12.5796 1.49647 12.7544 2.65624L15.2016 15.1115L21.4883 0.497865H27.6033L18.1702 22.0845ZM31.099 22.0845H25.1588L30.0502 0.497864H35.9904L31.099 22.0845ZM43.6761 6.47801C43.8509 5.31536 44.8997 4.65058 46.1233 4.65058C48.0461 4.48367 50.1407 4.8175 51.8887 5.64632L52.9375 0.998609C51.1895 0.333829 49.2667 0 47.5217 0C41.7564 0 37.5611 2.99007 37.5611 7.13991C37.5611 10.2969 40.5327 11.9545 42.6304 12.9531C44.8997 13.9489 45.7737 14.6137 45.5989 15.6094C45.5989 17.103 43.8509 17.7678 42.106 17.7678C40.0083 17.7678 37.9107 17.2699 35.991 16.4382L34.9422 21.0888C37.0398 21.9176 39.3091 22.2514 41.4068 22.2514C47.8713 22.4155 51.8887 19.4283 51.8887 14.9446C51.8887 9.29829 43.6761 8.96734 43.6761 6.47801ZM72.6752 22.0845L67.9586 0.497864H62.8924C61.8436 0.497864 60.7948 1.16264 60.4452 2.15838L51.7113 22.0845H57.8262L59.0468 18.9304H66.5602L67.2594 22.0845H72.6752ZM63.7695 6.31125L65.5145 14.4469H60.6231L63.7695 6.31125Z" fill="#E6F0ED"/>
</svg>
