<svg width="43" height="24" viewBox="0 0 43 24" fill="none" xmlns="http://www.w3.org/2000/svg">
<path d="M29.9287 0C37.1239 0 42.957 5.37258 42.957 12C42.957 18.6274 37.1239 24 29.9287 24C26.7032 23.9999 23.7537 22.9174 21.4785 21.1289C19.2033 22.9174 16.2538 23.9999 13.0283 24C5.83313 24 0 18.6274 0 12C0 5.37258 5.83313 0 13.0283 0C16.2536 5.97975e-05 19.2034 1.08188 21.4785 2.87012C23.7536 1.08188 26.7034 6.49065e-05 29.9287 0Z" fill="#E1E1E1"/>
<path d="M29.9287 0C37.1239 0 42.957 5.37258 42.957 12C42.957 18.6274 37.1239 24 29.9287 24C26.7032 23.9999 23.7537 22.9174 21.4785 21.1289C24.2786 18.9279 26.0566 15.6564 26.0566 12C26.0566 8.34344 24.2788 5.07113 21.4785 2.87012C23.7536 1.08188 26.7034 6.57577e-05 29.9287 0Z" fill="#CBCBCB"/>
<path d="M21.478 2.87061C24.2783 5.07162 26.0562 8.34395 26.0562 12.0005C26.056 15.6568 24.2782 18.9285 21.478 21.1294C18.6782 18.9285 16.901 15.6566 16.9009 12.0005C16.9009 8.34415 18.678 5.07161 21.478 2.87061Z" fill="#CBCBCB"/>
</svg>
