<svg width="101" height="24" viewBox="0 0 101 24" fill="none" xmlns="http://www.w3.org/2000/svg">
<path d="M57.828 6.41425C58.8834 6.41425 59.739 5.7551 59.739 4.94199C59.739 4.12888 58.8834 3.46973 57.828 3.46973C56.7726 3.46973 55.917 4.12888 55.917 4.94199C55.917 5.7551 56.7726 6.41425 57.828 6.41425Z" fill="#E6F0ED"/>
<path d="M49.4707 5.08377V17.8141H53.0273V4.3689H50.2986C49.8416 4.3689 49.4717 4.68868 49.4717 5.08377H49.4707Z" fill="#E6F0ED"/>
<path d="M56.0537 8.66238V17.8131H59.6103V7.94751H56.8816C56.4246 7.94751 56.0547 8.2673 56.0547 8.66238H56.0537Z" fill="#E6F0ED"/>
<path d="M69.239 7.71817C67.6191 7.71817 66.4786 8.44367 65.9745 8.84053V7.9476H63.2458C62.7888 7.9476 62.4189 8.26739 62.4189 8.66247V21.7596H65.9755V17.4154C66.5155 17.7689 67.2451 18.0196 68.2318 18.0196C71.5496 18.0196 74.0969 15.5419 74.0969 12.4211C74.0969 9.30028 71.4697 7.71729 69.2401 7.71729L69.239 7.71817ZM68.0709 16.9645C67.3414 16.9645 66.5678 16.3684 65.9745 15.7713V10.4811C66.5278 10.0054 67.4695 9.32419 68.283 9.32419C69.5034 9.32419 70.6449 10.7699 70.6449 12.8808C70.6449 14.9918 69.53 16.9645 68.0709 16.9645Z" fill="#E6F0ED"/>
<path d="M80.8679 7.71826C77.7366 7.71826 76.7017 8.29228 76.7017 8.29228L77.0736 8.98058C77.0736 8.98058 78.2417 8.61384 80.1527 8.61384C82.2758 8.61384 82.4879 9.60067 82.4879 10.8169V11.3839C82.033 11.2687 81.162 11.0915 80.0728 11.0915C78.4538 11.0915 75.5879 11.6425 75.5879 14.51C75.5879 17.3774 78.1362 18.0206 79.8074 18.0206C80.786 18.0206 81.8065 17.5812 82.4879 17.2162V17.8142H86.0445V10.816C86.0445 8.75115 84.0013 7.71826 80.869 7.71826H80.8679ZM80.6558 16.7122C79.1701 16.7122 78.2407 15.9548 78.2407 14.5552C78.2407 13.1555 79.8863 12.2839 81.1866 12.2839C81.8413 12.2839 82.2461 12.4637 82.4869 12.6426V16.0637C82.0678 16.3782 81.4428 16.7122 80.6558 16.7122Z" fill="#E6F0ED"/>
<path d="M100.149 7.71817H97.7623L94.5603 14.0227L94.4722 13.8739L90.8224 7.71729H87.1787L92.7456 17.1089L92.8789 17.3331L92.2958 18.4802C91.3972 20.0216 88.8233 19.9188 88.8233 19.9188V21.2095C88.8233 21.2095 89.9309 21.2901 90.7343 21.2095C91.4986 21.1333 93.2016 20.693 94.0295 19.1738L95.7305 15.991L100.15 7.71817H100.149Z" fill="#E6F0ED"/>
<path d="M40.6769 4.36963H39.1676L37.9411 6.57536L31.6855 17.814H34.0894L35.3282 15.5888H42.7774L43.9722 17.814H47.8945L41.1154 5.18726L40.6758 4.36963H40.6769ZM42.2723 14.648H35.8518L39.1194 8.7749L42.2723 14.648Z" fill="#E6F0ED"/>
<path d="M27.765 3.76392V20.2751C27.7394 22.3373 25.7997 24 23.4113 24H4.35375C1.94889 24 0 22.3151 0 20.2361V3.76392C0 1.68486 1.94889 0 4.35375 0H23.4113C25.8161 0 27.765 1.68486 27.765 3.76392Z" fill="#E6F0ED"/>
<path d="M18.5562 13.4913C19.9825 11.1234 20.9293 8.62357 20.9293 8.62357H15.4228V6.94668H22.209V5.92531H15.4228V3.22705H12.2638V5.92531H5.47647V6.94668H12.2627V8.62357H6.55543V9.52093H17.5838C17.5838 9.52093 16.972 11.1456 15.9464 12.7533C12.9882 11.9632 10.2585 11.4122 8.06679 11.4122C2.81237 11.4122 1.64632 13.695 1.89428 15.782C2.09512 17.4474 3.52758 19.879 7.90695 19.879C11.9072 19.879 15.1359 17.8965 17.1237 15.5367C20.9139 17.0452 24.9172 18.9037 27.7637 20.275V16.3162C24.7543 15.4242 21.585 14.3833 18.5531 13.4913H18.5562ZM7.27269 18.4688C3.57164 18.4688 2.99886 16.6652 2.93533 15.5889C2.87488 14.6473 3.61058 12.88 7.78911 12.88C9.34351 12.88 11.8078 13.5657 14.5754 14.5649C13.0118 16.341 10.5055 18.4688 7.27269 18.4688Z" fill="#53918C"/>
</svg>
