<svg width="21" height="12" viewBox="0 0 21 12" fill="none" xmlns="http://www.w3.org/2000/svg">
<path d="M0.00187392 0.0019019H2.84184C3.29114 0.0019019 3.66369 0.0779611 4.0381 0.230081C4.41252 0.3822 4.71019 0.610379 4.97228 0.874687C5.23438 1.13899 5.45902 1.44323 5.60692 1.82353C5.75669 2.20383 5.83157 2.58223 5.83157 3.00056C5.83157 3.41889 5.75669 3.79728 5.60692 4.17758C5.45715 4.55788 5.2325 4.86212 4.97228 5.12643C4.71206 5.39074 4.37508 5.62082 4.0381 5.77103C3.70113 5.92315 3.29114 5.99921 2.84184 5.99921H1.57069V8.39129H0.0374441V0H0L0.00187392 0.0019019ZM1.53512 1.44514V4.51985H2.73139C2.95604 4.51985 3.18069 4.48182 3.36602 4.40576C3.55136 4.3297 3.703 4.21561 3.85277 4.06349C4.00254 3.91137 4.07742 3.75925 4.15231 3.5691C4.22719 3.37895 4.26463 3.18881 4.26463 2.96253C4.26463 2.73625 4.22719 2.5442 4.15231 2.35595C4.07742 2.1658 3.96509 2.01368 3.85277 1.86156C3.703 1.70944 3.55323 1.59535 3.36602 1.51929C3.17881 1.44323 2.95417 1.4052 2.73139 1.4052H1.53512V1.44323V1.44514ZM9.3848 8.3932C8.97294 8.3932 8.60039 8.31714 8.18853 8.16502C7.81411 8.0129 7.44157 7.78472 7.14204 7.52041C6.8425 7.21617 6.58228 6.8739 6.39507 6.45747C6.20786 6.04105 6.09553 5.54666 6.09553 5.01424C6.09553 4.48182 6.17042 3.98933 6.35763 3.57101C6.54484 3.15268 6.80693 2.81231 7.10459 2.50807C7.40226 2.20383 7.77668 2.01368 8.1511 1.86346C8.56296 1.71135 8.9355 1.63528 9.3848 1.63528C9.8341 1.63528 10.2441 1.71135 10.5811 1.86346C10.9555 2.01558 11.2531 2.24376 11.5152 2.50807V1.63528H13.0485V8.3932H11.5152V7.44435C11.2906 7.74859 10.9555 7.97677 10.5811 8.16502C10.2067 8.31714 9.8341 8.3932 9.3848 8.3932ZM9.6469 6.98799C9.94643 6.98799 10.2067 6.94996 10.4313 6.83587C10.656 6.72178 10.8806 6.60769 11.0659 6.41754C11.2513 6.22739 11.3655 6.03724 11.4778 5.81097C11.5901 5.58279 11.6276 5.31658 11.6276 5.05227C11.6276 4.78796 11.5901 4.51985 11.4778 4.29357C11.3655 4.06539 11.2531 3.83721 11.0659 3.687C10.8787 3.49685 10.6915 3.38276 10.4313 3.26867C10.1692 3.11655 9.90712 3.07852 9.6469 3.07852C9.38668 3.07852 9.12271 3.11655 8.86249 3.23064C8.6004 3.34473 8.41319 3.45882 8.22785 3.64897C8.04251 3.83912 7.89087 4.02927 7.81599 4.25554C7.70366 4.48372 7.66622 4.74993 7.66622 5.01424C7.66622 5.27855 7.70366 5.54476 7.81599 5.77294C7.92831 6.00112 8.07808 6.2293 8.22785 6.41944C8.41506 6.60959 8.63971 6.72368 8.86249 6.83777C9.08714 6.91383 9.34923 6.98989 9.6469 6.98989M15.1789 1.67522L17.0473 6.26923L18.7659 1.67522H20.374L16.4501 11.4698H14.8794L16.2629 8.09086L13.5708 1.67522H15.1789Z" fill="#00152E"/>
</svg>
