<svg width="40" height="26" viewBox="0 0 40 26" fill="none" xmlns="http://www.w3.org/2000/svg">
<path d="M6.74419 1.87928C7.75194 0.781422 8.79845 0.16791 9.88372 0.0387474C11.0465 -0.0904114 12.0155 0.103329 12.7907 0.619968C13.6434 1.07203 14.1085 1.78241 14.186 2.75112C14.3411 3.65524 13.876 4.65623 12.7907 5.7541C11.7829 6.78738 10.969 7.82066 10.3488 8.85395C9.8062 9.82265 9.4186 10.7914 9.18605 11.7601C11.6667 11.9538 13.6434 12.6965 15.1163 13.9881C16.5891 15.2151 17.3256 16.8619 17.3256 18.9285C17.3256 20.995 16.5504 22.7064 15 24.0626C13.4496 25.3542 11.3566 26 8.72093 26C6.00775 26 3.87597 25.225 2.32558 23.6751C0.775194 22.1252 0 19.9618 0 17.1848C0 14.8599 0.426357 12.4382 1.27907 9.91952C2.2093 7.33632 4.03101 4.65624 6.74419 1.87928ZM29.4186 1.87928C30.4264 0.781422 31.4729 0.16791 32.5581 0.0387474C33.7209 -0.0904114 34.6899 0.103329 35.4651 0.619968C36.3178 1.07203 36.7829 1.78241 36.8605 2.75112C37.0155 3.65524 36.5504 4.65623 35.4651 5.7541C34.4574 6.78738 33.6434 7.82066 33.0233 8.85395C32.4806 9.82265 32.093 10.7914 31.8605 11.7601C34.3411 11.9538 36.3178 12.6965 37.7907 13.9881C39.2636 15.2151 40 16.8619 40 18.9285C40 20.995 39.2248 22.7064 37.6744 24.0626C36.124 25.3542 34.031 26 31.3953 26C28.6822 26 26.5504 25.225 25 23.6751C23.4496 22.1252 22.6744 19.9618 22.6744 17.1848C22.6744 14.8599 23.1008 12.4382 23.9535 9.91952C24.8837 7.33632 26.7054 4.65624 29.4186 1.87928Z" fill="#0B2D5C" fill-opacity="0.2"/>
</svg>
